<svg width="12" height="21" viewBox="0 0 12 21" fill="none" xmlns="http://www.w3.org/2000/svg">
<path d="M10.6424 0.89618L10.6424 0.896033L10.6517 0.896169C10.8425 0.898889 11.0248 0.975574 11.16 1.11022L11.1623 1.11249C11.2969 1.24951 11.3725 1.4339 11.3725 1.62612C11.3725 1.81834 11.2969 2.00274 11.1623 2.13977L11.1601 2.14188L2.59505 10.6825L11.1601 19.2232C11.2972 19.3598 11.3743 19.5453 11.3743 19.739C11.3743 19.9326 11.2972 20.1181 11.1601 20.2547C11.0231 20.3913 10.8375 20.4679 10.6441 20.4679C10.4507 20.4679 10.2651 20.3913 10.1281 20.2547L1.04911 11.2016L1.0491 11.2016L1.047 11.1995C0.912309 11.0625 0.836718 10.8781 0.836718 10.6859C0.836718 10.4937 0.912309 10.3093 1.047 10.1722L1.04903 10.1702L10.128 1.11044L10.128 1.1104L10.1322 1.10637C10.2696 0.974429 10.4519 0.899415 10.6424 0.89618Z" fill="white" stroke="white" stroke-width="0.6"/>
</svg>
