<svg width="10" height="18" viewBox="0 0 10 18" fill="none" xmlns="http://www.w3.org/2000/svg">
<path d="M8.65293 0.998962L8.65293 0.998815L8.66231 0.99895C8.83545 1.00142 9.00099 1.07104 9.12377 1.1933L9.12602 1.19557C9.24833 1.31999 9.31698 1.48744 9.31698 1.66202C9.31698 1.8366 9.24833 2.00405 9.12602 2.12847L9.12391 2.1306L1.92428 9.30968L9.12391 16.4888C9.24839 16.6129 9.31848 16.7814 9.31848 16.9573C9.31848 17.1333 9.24839 17.3018 9.12391 17.4259C8.99946 17.55 8.83084 17.6196 8.65521 17.6196C8.47957 17.6196 8.31096 17.55 8.1865 17.4259L0.519779 9.78107L0.519768 9.78108L0.517665 9.77894C0.395362 9.65453 0.326708 9.48707 0.326708 9.3125C0.326708 9.13792 0.395362 8.97047 0.517665 8.84605L0.519701 8.844L8.18642 1.19352L8.18638 1.19348L8.19059 1.18945C8.31517 1.06987 8.48037 1.0019 8.65293 0.998962Z" fill="#5F4114" stroke="#5F4114" stroke-width="0.6"/>
</svg>
