<svg width="26" height="25" viewBox="0 0 26 25" fill="none" xmlns="http://www.w3.org/2000/svg">
<path d="M0 12.5C0 5.59644 5.59644 0 12.5 0H13.5C20.4036 0 26 5.59644 26 12.5C26 19.4036 20.4036 25 13.5 25H12.5C5.59644 25 0 19.4036 0 12.5Z" fill="url(#paint0_linear_3_886)"/>
<path fill-rule="evenodd" clip-rule="evenodd" d="M5.88485 12.3679C9.67461 10.7803 12.2017 9.73365 13.4662 9.22795C17.0764 7.78409 17.8266 7.53327 18.3155 7.52499C18.4231 7.52317 18.6635 7.5488 18.8193 7.67032C18.9508 7.77293 18.987 7.91155 19.0043 8.00883C19.0216 8.10612 19.0432 8.32775 19.026 8.50092C18.8304 10.4775 17.9839 15.274 17.5532 17.4878C17.371 18.4245 17.0121 18.7386 16.6648 18.7693C15.9098 18.8361 15.3366 18.2896 14.6054 17.8287C13.4612 17.1076 12.8148 16.6586 11.7042 15.9549C10.4207 15.1416 11.2527 14.6946 11.9842 13.9641C12.1756 13.7729 15.5019 10.8638 15.5663 10.5999C15.5743 10.5669 15.5818 10.4439 15.5058 10.3789C15.4298 10.3139 15.3176 10.3362 15.2366 10.3538C15.1219 10.3789 13.2941 11.5405 9.75316 13.8388C9.23433 14.1814 8.7644 14.3483 8.34336 14.3395C7.87919 14.3299 6.98632 14.0872 6.32256 13.8797C5.50843 13.6252 4.86138 13.4907 4.91773 13.0586C4.94707 12.8335 5.26945 12.6033 5.88485 12.3679Z" fill="white"/>
<defs>
<linearGradient id="paint0_linear_3_886" x1="13" y1="0" x2="13" y2="24.8146" gradientUnits="userSpaceOnUse">
<stop stop-color="#2AABEE"/>
<stop offset="1" stop-color="#229ED9"/>
</linearGradient>
</defs>
</svg>
