<svg width="26" height="26" viewBox="0 0 26 26" fill="none" xmlns="http://www.w3.org/2000/svg">
<path fill-rule="evenodd" clip-rule="evenodd" d="M12.6419 0C5.65998 0 0 5.65998 0 12.6419C0 19.6239 5.65998 25.2838 12.6419 25.2838C19.6239 25.2838 25.2838 19.6239 25.2838 12.6419C25.2838 5.65998 19.6239 0 12.6419 0ZM13.6713 16.6329C13.5467 16.7643 13.3033 16.7908 13.3033 16.7908H12.4973C12.4973 16.7908 10.7192 16.8957 9.15282 15.2953C7.44462 13.5493 5.93625 10.085 5.93625 10.085C5.93625 10.085 5.84919 9.85781 5.94351 9.74839C6.04969 9.62474 6.33923 9.61697 6.33923 9.61697L8.26574 9.60467C8.26574 9.60467 8.44711 9.63381 8.57704 9.72768C8.68455 9.80537 8.74457 9.94974 8.74457 9.94974C8.74457 9.94974 9.05587 10.7227 9.46808 11.4219C10.2734 12.7873 10.648 13.0857 10.921 12.9394C11.3194 12.7264 11.2 11.0095 11.2 11.0095C11.2 11.0095 11.2073 10.3867 10.9995 10.109C10.8386 9.89406 10.5352 9.83126 10.4013 9.81378C10.2925 9.79954 10.4706 9.55223 10.7014 9.44153C11.0483 9.27515 11.6604 9.26543 12.3839 9.27256C12.9478 9.27838 13.11 9.31269 13.3303 9.36513C13.8416 9.48623 13.8256 9.87434 13.7912 10.712C13.7809 10.9625 13.7689 11.2532 13.7689 11.589C13.7689 11.6644 13.7667 11.7448 13.7644 11.8276C13.7524 12.2567 13.7387 12.7481 14.0268 12.931C14.1745 13.0242 14.5353 12.9446 15.4382 11.4401C15.8663 10.7266 16.1868 9.88823 16.1868 9.88823C16.1868 9.88823 16.2574 9.73868 16.3662 9.67459C16.4777 9.6092 16.628 9.62927 16.628 9.62927L18.6554 9.61697C18.6554 9.61697 19.2649 9.54511 19.3631 9.81572C19.4667 10.0986 19.1356 10.7603 18.3072 11.844C17.5214 12.8723 17.139 13.2509 17.1741 13.5858C17.1998 13.8305 17.4483 14.0517 17.9253 14.4861C18.9211 15.3935 19.188 15.871 19.2521 15.9857C19.2574 15.9952 19.2614 16.0023 19.2642 16.0068C19.7107 16.7338 18.7689 16.7908 18.7689 16.7908L16.9677 16.8154C16.9677 16.8154 16.5812 16.8905 16.072 16.5474C15.8053 16.3678 15.5447 16.0745 15.2964 15.7951C14.9173 15.3685 14.5671 14.9743 14.2682 15.0674C13.7663 15.2241 13.7815 16.2852 13.7815 16.2852C13.7815 16.2852 13.7854 16.5124 13.6713 16.6329Z" fill="#3B8FDC"/>
</svg>
