<svg width="24" height="25" viewBox="0 0 24 25" fill="none" xmlns="http://www.w3.org/2000/svg">
<path d="M0 12C0 5.37258 5.37258 0 12 0V0C18.6274 0 24 5.37258 24 12V13C24 19.6274 18.6274 25 12 25V25C5.37258 25 0 19.6274 0 13V12Z" fill="url(#paint0_linear_3_885)"/>
<path d="M4.72095 19.7723L5.74988 15.8802C5.11375 14.7378 4.78004 13.4441 4.78352 12.1215C4.78352 7.97718 8.03717 4.60767 12.0312 4.60767C13.9709 4.60767 15.7924 5.38968 17.1585 6.80956C18.5281 8.22944 19.2824 10.1178 19.279 12.1251C19.279 16.2694 16.0253 19.6389 12.0278 19.6389H12.0243C10.8111 19.6389 9.61881 19.3218 8.55859 18.7236L4.72095 19.7723ZM8.74283 17.365L8.96182 17.5019C9.88647 18.0713 10.9467 18.3704 12.0278 18.374H12.0312C15.3509 18.374 18.0554 15.5739 18.0554 12.1287C18.0554 10.4602 17.4297 8.89254 16.293 7.7105C15.1563 6.52847 13.6407 5.87979 12.0312 5.87979C8.71154 5.87619 6.00711 8.67631 6.00711 12.1215C6.00711 13.2999 6.32344 14.4495 6.92829 15.4442L7.07081 15.682L6.46249 17.9848L8.74283 17.365Z" fill="white"/>
<path d="M4.97461 19.5093L5.96878 15.7506C5.35351 14.6515 5.03023 13.4009 5.03023 12.1252C5.0337 8.12504 8.17265 4.87085 12.0311 4.87085C13.9048 4.87085 15.6602 5.62764 16.9812 6.99707C18.3021 8.3665 19.0286 10.19 19.0286 12.1288C19.0286 16.129 15.8862 19.3832 12.0311 19.3832H12.0277C10.8562 19.3832 9.70562 19.0769 8.68364 18.5003L4.97461 19.5093Z" fill="url(#paint1_linear_3_885)"/>
<path d="M4.72095 19.7723L5.74988 15.8802C5.11375 14.7378 4.78004 13.4441 4.78352 12.1215C4.78352 7.97718 8.03717 4.60767 12.0312 4.60767C13.9709 4.60767 15.7924 5.38968 17.1585 6.80956C18.5281 8.22944 19.2824 10.1178 19.279 12.1251C19.279 16.2694 16.0253 19.6389 12.0278 19.6389H12.0243C10.8111 19.6389 9.61881 19.3218 8.55859 18.7236L4.72095 19.7723ZM8.74283 17.365L8.96182 17.5019C9.88647 18.0713 10.9467 18.3704 12.0278 18.374H12.0312C15.3509 18.374 18.0554 15.5739 18.0554 12.1287C18.0554 10.4602 17.4297 8.89254 16.293 7.7105C15.1563 6.52847 13.6407 5.87979 12.0312 5.87979C8.71154 5.87619 6.00711 8.67631 6.00711 12.1215C6.00711 13.2999 6.32344 14.4495 6.92829 15.4442L7.07081 15.682L6.46249 17.9848L8.74283 17.365Z" fill="url(#paint2_linear_3_885)"/>
<path fill-rule="evenodd" clip-rule="evenodd" d="M10.22 8.97907C10.0844 8.66554 9.94192 8.65833 9.8133 8.65473C9.70902 8.65112 9.58735 8.65112 9.46569 8.65112C9.34403 8.65112 9.14936 8.69797 8.98251 8.88537C8.81565 9.07276 8.34985 9.52684 8.34985 10.453C8.34985 11.3756 8.99989 12.2693 9.09027 12.3954C9.18065 12.5216 10.3452 14.4784 12.184 15.2316C13.7135 15.8586 14.0264 15.7325 14.3566 15.7001C14.6868 15.6676 15.4272 15.246 15.5802 14.8063C15.7297 14.3667 15.7297 13.9919 15.6845 13.9126C15.6393 13.8333 15.5176 13.7865 15.3369 13.6928C15.1561 13.5991 14.2662 13.145 14.0994 13.0801C13.9325 13.0189 13.8109 12.9864 13.6927 13.1738C13.571 13.3612 13.2234 13.7829 13.1191 13.909C13.0148 14.0351 12.9071 14.0496 12.7263 13.9559C12.5455 13.8622 11.9615 13.664 11.2698 13.0225C10.731 12.5252 10.366 11.9089 10.2617 11.7215C10.1574 11.5341 10.2513 11.4332 10.3417 11.3395C10.4216 11.2566 10.5224 11.1197 10.6128 11.0116C10.7032 10.9035 10.7345 10.8242 10.7936 10.6981C10.8527 10.5719 10.8249 10.4638 10.7797 10.3701C10.7345 10.28 10.3799 9.35025 10.22 8.97907Z" fill="white"/>
<defs>
<linearGradient id="paint0_linear_3_885" x1="11.9994" y1="24.9988" x2="11.9994" y2="-0.000874685" gradientUnits="userSpaceOnUse">
<stop stop-color="#20B038"/>
<stop offset="1" stop-color="#60D66A"/>
</linearGradient>
<linearGradient id="paint1_linear_3_885" x1="12.0012" y1="19.5086" x2="12.0012" y2="4.87034" gradientUnits="userSpaceOnUse">
<stop stop-color="#20B038"/>
<stop offset="1" stop-color="#60D66A"/>
</linearGradient>
<linearGradient id="paint2_linear_3_885" x1="12.0014" y1="19.7709" x2="12.0014" y2="4.60767" gradientUnits="userSpaceOnUse">
<stop stop-color="#F9F9F9"/>
<stop offset="1" stop-color="white"/>
</linearGradient>
</defs>
</svg>
