<svg width="26" height="25" fill="none" xmlns="http://www.w3.org/2000/svg"><path d="M0 12.5C0 5.596 5.596 0 12.5 0h1C20.404 0 26 5.596 26 12.5S20.404 25 13.5 25h-1C5.596 25 0 19.404 0 12.5Z" fill="url(#a)"/><path fill-rule="evenodd" clip-rule="evenodd" d="M5.885 12.368c3.79-1.588 6.317-2.634 7.581-3.14 3.61-1.444 4.36-1.695 4.85-1.703.107-.002.348.024.503.145a.52.52 0 0 1 .185.339c.018.097.04.319.022.492-.196 1.976-1.042 6.773-1.473 8.987-.182.936-.54 1.25-.888 1.281-.755.067-1.328-.48-2.06-.94-1.144-.721-1.79-1.17-2.9-1.874-1.284-.813-.452-1.26.28-1.99.19-.192 3.517-3.101 3.581-3.365.008-.033.016-.156-.06-.221s-.188-.043-.27-.025c-.114.025-1.942 1.187-5.483 3.485-.519.342-.989.51-1.41.5-.464-.01-1.357-.252-2.02-.46-.815-.254-1.462-.388-1.405-.82.03-.225.351-.456.967-.691Z" fill="#fff"/><defs><linearGradient id="a" x1="13" y1="0" x2="13" y2="24.815" gradientUnits="userSpaceOnUse"><stop stop-color="#2AABEE"/><stop offset="1" stop-color="#229ED9"/></linearGradient></defs></svg>