<svg width="26" height="26" fill="none" xmlns="http://www.w3.org/2000/svg"><path fill-rule="evenodd" clip-rule="evenodd" d="M12.642 0C5.66 0 0 5.66 0 12.642c0 6.982 5.66 12.642 12.642 12.642 6.982 0 12.642-5.66 12.642-12.642C25.284 5.66 19.624 0 12.642 0Zm1.03 16.633c-.125.131-.369.158-.369.158h-.806s-1.778.105-3.344-1.496c-1.708-1.746-3.217-5.21-3.217-5.21s-.087-.227.008-.337c.106-.123.395-.131.395-.131l1.927-.012s.181.029.311.123a.593.593 0 0 1 .168.222s.31.773.723 1.472c.805 1.365 1.18 1.664 1.453 1.517.398-.213.279-1.93.279-1.93s.007-.622-.2-.9c-.161-.215-.465-.278-.599-.295-.108-.014.07-.262.3-.372.347-.167.96-.177 1.683-.17.564.006.726.04.946.093.512.121.496.51.461 1.347-.01.25-.022.541-.022.877 0 .075-.002.156-.005.239-.012.429-.025.92.263 1.103.148.093.508.014 1.411-1.49.428-.714.749-1.553.749-1.553s.07-.15.18-.213c.11-.066.261-.046.261-.046l2.027-.012s.61-.072.708.199c.104.283-.227.944-1.056 2.028-.786 1.028-1.168 1.407-1.133 1.742.026.245.274.466.751.9.996.907 1.263 1.385 1.327 1.5a.6.6 0 0 0 .012.02c.447.728-.495.785-.495.785l-1.801.024s-.387.075-.896-.268c-.267-.18-.527-.473-.776-.752-.379-.427-.729-.82-1.028-.728-.502.157-.487 1.218-.487 1.218s.004.227-.11.348Z" fill="#3B8FDC"/></svg>