<svg width="24" height="25" fill="none" xmlns="http://www.w3.org/2000/svg"><path d="M0 12C0 5.373 5.373 0 12 0s12 5.373 12 12v1c0 6.627-5.373 12-12 12S0 19.627 0 13v-1Z" fill="url(#a)"/><path d="M4.721 19.772 5.75 15.88a7.682 7.682 0 0 1-.966-3.759c0-4.144 3.253-7.513 7.247-7.513 1.94 0 3.761.782 5.127 2.202a7.592 7.592 0 0 1 2.121 5.315c0 4.144-3.254 7.514-7.251 7.514h-.004a7.053 7.053 0 0 1-3.465-.915L4.72 19.772Zm4.022-2.407.219.137a5.88 5.88 0 0 0 3.066.872h.003c3.32 0 6.024-2.8 6.024-6.245a6.334 6.334 0 0 0-1.762-4.418 5.873 5.873 0 0 0-4.262-1.831c-3.32-.004-6.024 2.796-6.024 6.241a6.39 6.39 0 0 0 .921 3.323l.143.238-.609 2.303 2.28-.62Z" fill="#fff"/><path d="m4.975 19.51.994-3.76a7.425 7.425 0 0 1-.939-3.625c.004-4 3.143-7.254 7.001-7.254 1.874 0 3.63.757 4.95 2.126 1.321 1.37 2.048 3.193 2.048 5.132 0 4-3.143 7.254-6.998 7.254h-.003a6.806 6.806 0 0 1-3.344-.883l-3.71 1.01Z" fill="url(#b)"/><path d="M4.721 19.772 5.75 15.88a7.682 7.682 0 0 1-.966-3.759c0-4.144 3.253-7.513 7.247-7.513 1.94 0 3.761.782 5.127 2.202a7.592 7.592 0 0 1 2.121 5.315c0 4.144-3.254 7.514-7.251 7.514h-.004a7.053 7.053 0 0 1-3.465-.915L4.72 19.772Zm4.022-2.407.219.137a5.88 5.88 0 0 0 3.066.872h.003c3.32 0 6.024-2.8 6.024-6.245a6.334 6.334 0 0 0-1.762-4.418 5.873 5.873 0 0 0-4.262-1.831c-3.32-.004-6.024 2.796-6.024 6.241a6.39 6.39 0 0 0 .921 3.323l.143.238-.609 2.303 2.28-.62Z" fill="url(#c)"/><path fill-rule="evenodd" clip-rule="evenodd" d="M10.22 8.98c-.136-.314-.278-.322-.407-.325-.104-.004-.226-.004-.347-.004a.656.656 0 0 0-.483.234c-.167.188-.633.642-.633 1.568 0 .923.65 1.816.74 1.942.09.127 1.255 2.083 3.094 2.837 1.53.627 1.842.5 2.173.468.33-.032 1.07-.454 1.223-.894.15-.44.15-.814.104-.893-.045-.08-.166-.127-.347-.22-.18-.094-1.07-.548-1.238-.613-.167-.061-.288-.094-.406.094-.122.187-.47.609-.574.735-.104.126-.212.14-.393.047-.18-.094-.765-.292-1.456-.933a5.59 5.59 0 0 1-1.008-1.301c-.105-.188-.01-.289.08-.383.08-.082.18-.22.27-.327.091-.109.123-.188.182-.314s.03-.234-.014-.328c-.045-.09-.4-1.02-.56-1.39Z" fill="#fff"/><defs><linearGradient id="a" x1="11.999" y1="24.999" x2="11.999" y2="-.001" gradientUnits="userSpaceOnUse"><stop stop-color="#20B038"/><stop offset="1" stop-color="#60D66A"/></linearGradient><linearGradient id="b" x1="12.001" y1="19.509" x2="12.001" y2="4.87" gradientUnits="userSpaceOnUse"><stop stop-color="#20B038"/><stop offset="1" stop-color="#60D66A"/></linearGradient><linearGradient id="c" x1="12.001" y1="19.771" x2="12.001" y2="4.608" gradientUnits="userSpaceOnUse"><stop stop-color="#F9F9F9"/><stop offset="1" stop-color="#fff"/></linearGradient></defs></svg>