<svg width="20" height="20" fill="none" xmlns="http://www.w3.org/2000/svg"><path d="M13.165 18.884a7.705 7.705 0 0 0 2.67 0c1.417-.25 2.558-1.201 2.951-2.46l.083-.267c.087-.278.131-.565.131-.854C19 14.031 17.862 13 16.459 13H12.54C11.138 13 10 14.031 10 15.303c0 .289.044.576.13.854l.084.267c.393 1.259 1.534 2.21 2.951 2.46Zm0 0A15.04 15.04 0 0 1 1.117 6.834m0 0a7.704 7.704 0 0 1 0-2.669c.25-1.417 1.2-2.558 2.46-2.951l.266-.083A2.86 2.86 0 0 1 4.697 1C5.969 1 7 2.138 7 3.541V7.46C7 8.862 5.969 10 4.697 10a2.86 2.86 0 0 1-.854-.13l-.267-.084c-1.259-.393-2.21-1.534-2.46-2.951Z" stroke="#FFB951" stroke-width="1.5"/></svg>